# xmcd
#
# Track frame offsets:
#	150
#	19917
#	39020
#	53377
#	73773
#	93872
#	108477
#	128674
#	145731
#	164420
#
# Disc length: 2450 seconds
#
# Revision: 1
# Processed by: cddbd v1.4PL0 Copyright (c) Steve Scherf et al.
# Submitted via: audiograbber 1.82.02
#
DISCID=7809900a
DTITLE=The Crossroads Band - Crossroads
DYEAR=2002
DGENRE=Blues
TTITLE0=Free Man
TTITLE1=I'm So Glad
TTITLE2=Stranded
TTITLE3=Oh Mama
TTITLE4=Higher Ground
TTITLE5=You Broke Me
TTITLE6=Time Slips Away
TTITLE7=Better
TTITLE8=One Night
TTITLE9=More Than I Can Say
EXTD=
EXTT0=
EXTT1=
EXTT2=
EXTT3=
EXTT4=
EXTT5=
EXTT6=
EXTT7=
EXTT8=
EXTT9=
PLAYORDER=
